<svg viewBox="0 0 375.623 194.606" fill="none" xmlns="http://www.w3.org/2000/svg">
<g id="Frame 818">
<path id="Vector" fill-rule="evenodd" clip-rule="evenodd" d="M216.335 70.3028V110.902H206.59V72.3326L216.335 70.3028ZM188.59 114.749C191.281 114.749 193.462 116.888 193.462 119.526C193.462 122.164 191.281 124.303 188.59 124.303C185.899 124.303 183.718 122.164 183.718 119.526C183.718 116.888 185.899 114.749 188.59 114.749ZM188.59 81.8327C196.886 81.8327 203.626 88.4267 203.626 96.5731C203.626 104.719 196.886 111.314 188.59 111.314C180.294 111.314 173.553 104.719 173.553 96.5731C173.553 88.4267 180.293 81.8327 188.59 81.8327ZM188.59 101.349C191.283 101.349 193.462 99.2127 193.462 96.5731C193.462 93.9335 191.283 91.7964 188.59 91.7964C185.897 91.7964 183.718 93.9327 183.718 96.5731C183.718 99.2134 185.897 101.349 188.59 101.349ZM157.935 101.349C159.613 101.349 160.98 100.009 160.98 98.3638C160.98 96.7185 159.613 95.3785 157.935 95.3785H150.626V101.349H157.935ZM150.627 79.8554V85.8259H156.041C157.719 85.8259 159.086 84.486 159.086 82.8407C159.086 81.1954 157.719 79.8554 156.041 79.8554H150.627ZM166.908 89.4347C169.263 91.7165 170.725 94.8745 170.711 98.3638C170.711 105.29 164.987 110.902 157.921 110.902H140.868V70.3028H156.027C163.091 70.3028 168.817 75.9147 168.817 82.8407C168.817 85.2557 168.127 87.5245 166.908 89.4347ZM234.742 91.9289H229.883V99.4251C229.883 101.694 230.627 103.366 232.576 103.366C233.835 103.366 234.755 103.087 234.755 103.087V110.119C234.755 110.119 232.738 111.313 230.004 111.313H229.883C229.761 111.313 229.652 111.3 229.531 111.3H229.436C229.382 111.3 229.314 111.286 229.26 111.286C223.82 111.007 220.125 107.651 220.125 101.826V77.1085L229.87 75.0788V82.3763H234.742V91.9289Z" fill="var(--fill-0, white)"/>
</g>
</svg>
