<svg viewBox="0 0 375.623 194.606" fill="none" xmlns="http://www.w3.org/2000/svg">
<g id="Frame 821">
<path id="Vector" d="M119.427 97.6108C120.432 89.7206 124.885 82.3044 131.764 78.1829C135.893 75.7018 140.976 74.5841 145.699 75.7914C147.89 76.3514 150.058 77.6303 151.215 79.6181C153.36 83.3094 151.935 88.7138 148.264 90.8913C147.5 91.3442 145.432 92.1923 144.859 91.1241C144.374 90.2191 145.736 88.2414 146.099 87.3363C147.242 84.4874 147.37 79.6965 143.718 78.6908C141.751 78.1075 139.244 78.8291 137.505 79.8146C132.559 82.6182 128.912 88.2314 127.331 93.6289C125.655 99.353 125.489 108.624 130.313 112.944C133.313 115.63 138.276 115.513 141.602 113.563C144.731 111.808 147.139 108.874 148.914 105.804C149.671 104.486 150.331 103.114 150.886 101.699C151.397 100.423 151.817 99.1937 152.459 97.9635C154.507 94.0342 158.762 89.5515 163.659 90.8021C165.532 91.2804 166.158 92.6261 166.81 94.2496C167.572 92.7996 168.641 91.4794 170.265 90.9758C171.11 90.7138 172.378 90.6142 173.183 91.0501C173.513 91.2284 173.729 91.514 173.833 91.8697C174.109 92.8077 172.818 96.4329 172.487 97.6021C171.594 100.756 169.941 106.891 170.151 110.069C170.405 113.89 174.126 110.635 175.192 108.914C178.378 103.774 179.978 97.9514 180.328 91.9621C180.382 91.0363 185.499 89.2413 185.964 93.4261C186.311 96.5509 185.616 97.9156 185.152 100.791C186.915 97.3121 190.678 92.0351 194.311 90.8513C199.451 89.1761 200.329 94.9106 199.456 98.4824C199.218 99.4534 199.124 100.448 198.827 101.417C198.461 103.291 196.507 109.325 198.254 110.717C198.282 110.739 198.609 110.872 198.669 110.896C200.821 110.308 202.222 108.338 203.284 106.475C204.412 104.458 205.233 102.285 205.722 100.026C206.354 97.0023 205.678 91.8404 209.578 90.7746C210.46 90.5336 211.788 90.4063 212.602 90.8814C212.744 90.9648 212.925 91.0862 212.969 91.2537C213.187 92.0845 212.722 94.3308 212.686 95.3186C212.211 100.06 212.635 109.537 214.51 110.662C214.667 110.756 214.827 110.779 215.005 110.734C216.484 110.361 219.205 105.865 220 104.465C220.734 103.149 221.413 101.803 222.039 100.432C220.924 99.7205 220.038 99.1091 219.306 97.9793C217.453 95.1228 217.358 91.3572 219.138 88.441C221.278 84.9348 226.73 84.6469 227.607 89.2349C228.145 92.2475 226.917 96.0887 225.738 98.8603C227.753 99.1041 229.004 98.6424 230.629 97.4138C231.861 96.5042 232.677 95.2148 233.691 94.098C235.621 91.975 238.287 90.2728 241.269 90.6213C243.689 90.9041 244.642 92.0614 245.346 94.2575C246.199 92.8792 247.316 91.2679 249.002 90.9111C254.611 89.7245 251.758 94.6201 251.156 97.2626C250.413 100.521 247.653 109.01 249.167 111.907C249.238 112.069 249.354 112.19 249.445 112.242C249.567 112.311 249.663 112.329 249.863 112.283C252.311 111.686 253.38 109.083 254.339 107.008C254.572 106.504 254.744 105.447 255.309 105.318C256.427 105.061 256.527 106.738 256.313 107.835C256.032 109.013 255.689 110.049 255.047 111.084C253.791 113.109 251.674 114.894 249.321 115.441C247.906 115.771 246.318 115.737 245.057 114.942C243.543 113.987 242.831 112.277 242.45 110.602C241.486 112.535 239.575 114.455 237.536 115.219C235.963 115.81 234.165 115.876 232.617 115.17C231.121 114.489 230.132 113.149 229.572 111.639C228.324 108.269 228.703 103.204 230.195 99.96C228.3 101.077 226.861 101.329 224.667 101.199C224.288 102.139 223.754 103.07 223.254 103.95C221.298 107.392 216.555 114.447 212.675 115.497C211.983 115.684 211.301 115.64 210.676 115.274C208.447 113.968 207.458 109.271 207.019 106.95C206.853 106.074 206.778 105.174 206.55 104.311C205.217 107.517 203.914 110.535 201.409 113.052C200.069 114.398 198.327 115.614 196.353 115.598C195.123 115.589 193.838 115.161 192.972 114.263C189.24 109.883 193.073 102.305 193.248 97.3008C193.263 97.0015 193.197 96.392 192.948 96.1898C192.146 95.5653 190.602 97.3631 190.149 97.9227C186.656 102.227 184.232 107.468 182.708 112.778C182.563 113.283 182.288 114.645 181.893 114.973C180.974 115.736 178.796 115.9 177.907 114.935C176.735 113.624 176.743 111.966 176.722 110.376C174.588 113.633 170.395 117.615 166.074 114.63C164.857 113.788 164.23 112.05 163.852 110.639C162.592 113.085 159.98 115.4 157.156 115.647C152.212 116.08 150.721 112.196 150.277 108.137C150.048 108.548 149.814 108.956 149.574 109.36C146.958 113.737 142.863 117.622 137.813 118.905C134.128 119.814 129.857 119.13 126.594 117.221C122.058 114.567 120.027 109.436 119.425 104.436C119.158 102.209 119.144 99.8386 119.427 97.6108ZM158.923 111.838C159.965 111.803 160.606 111.412 161.317 110.653C163.925 107.867 165.705 101.476 165.572 97.7317C165.534 96.6824 165.367 95.3252 164.558 94.5794C164.253 94.2986 163.81 94.1282 163.393 94.1389C161.805 94.425 160.817 95.4628 159.929 96.7408C157.694 99.9577 156.093 105.361 156.812 109.278C156.964 110.108 157.298 110.991 158.017 111.49C158.274 111.669 158.609 111.814 158.923 111.838ZM237.412 111.829C238.446 111.824 239.072 111.503 239.809 110.762C242.467 108.087 244.158 101.814 244.135 98.1337C244.128 96.9879 244.066 95.47 243.206 94.613C242.886 94.2942 242.486 94.1472 242.036 94.1354C242.028 94.1352 242.02 94.1357 242.012 94.1358C240.289 94.4899 239.318 95.5665 238.387 96.9807C236.318 100.129 234.635 105.456 235.416 109.235C235.597 110.113 235.954 111.035 236.731 111.549C236.94 111.687 237.171 111.766 237.412 111.829ZM223.192 97.1571L223.307 97.1872C223.494 96.8838 223.562 96.3399 223.65 95.9893C224.064 94.3421 224.79 91.5969 224.405 89.9355C223.985 88.1251 222.41 89.2285 222.054 90.5455C221.534 92.4709 221.81 94.8883 222.813 96.6058C222.925 96.7953 223.052 96.9869 223.192 97.1571Z" fill="var(--fill-0, #FEFEFE)"/>
</g>
</svg>
