<svg viewBox="0 0 375.623 194.606" fill="none" xmlns="http://www.w3.org/2000/svg">
<g id="Frame 826">
<g id="Union">
<path fill-rule="evenodd" clip-rule="evenodd" d="M153.844 86.3372C155.562 86.3372 157.139 86.6599 158.931 87.6274C159.328 87.8458 159.433 87.9163 159.577 87.9163C159.826 87.9163 159.935 87.7722 160.114 87.4135C160.293 87.0195 160.434 86.8753 160.901 86.8753H164.843C165.271 86.8753 165.559 87.1641 165.559 87.5932V104.465C165.559 111.207 162.263 115.058 155.541 115.292L154.876 115.303C148.462 115.303 145.704 112.003 145.704 109.561C145.704 109.163 145.956 108.913 146.35 108.912H150.506C151.082 108.912 151.222 109.092 151.511 109.521C152.048 110.344 153.049 110.992 154.95 110.992C157.996 110.992 159.717 109.092 159.717 105.932C159.717 105.608 159.573 105.464 159.359 105.464C159.254 105.464 159.145 105.5 158.931 105.644C158 106.362 155.885 107.223 153.844 107.223C147.752 107.223 144.313 102.558 144.313 96.7801C144.313 91.0025 147.752 86.3372 153.844 86.3372ZM155.059 90.7526C152.192 90.7526 150.186 93.0159 150.186 96.6401C150.186 100.264 152.193 102.562 155.059 102.562C157.891 102.562 159.931 100.229 159.931 96.6401C159.931 93.0511 157.926 90.7526 155.059 90.7526Z" fill="var(--fill-0, white)"/>
<path d="M123.525 79.3381C126.676 79.3382 129.04 79.6268 132.654 81.5623C132.758 81.5623 132.832 81.5618 132.868 81.5965C132.938 81.6316 132.977 81.7059 133.047 81.741C133.121 81.7757 133.227 81.7063 133.37 81.7763C133.514 81.8502 133.585 81.9202 133.694 82.0641C133.768 82.138 133.838 82.1735 133.981 82.2085C134.27 82.2825 134.375 82.3525 134.484 82.5317C134.554 82.6366 134.593 82.7456 134.663 82.7809C134.807 82.8159 134.951 82.9952 134.986 83.1393C135.025 83.2834 135.165 83.3576 135.095 83.6068C135.095 84.3934 133.627 85.1444 132.623 84.7162C129.577 83.4271 127.606 82.9606 125.028 82.9606C117.539 82.9606 110.801 87.653 109.298 93.9582C109.263 94.0672 109.262 94.1024 109.262 94.246C109.262 94.3512 109.333 94.5309 109.333 94.675C109.333 95.0683 108.796 95.0687 108.761 95.4271C108.617 96.5017 108.616 96.6811 108.616 97.1484C108.616 98.0441 108.725 98.87 108.904 99.2282C109.083 99.5863 109.407 99.6605 109.407 99.9097C109.407 100.089 109.193 100.124 109.193 100.411C109.193 100.661 109.446 102.024 109.516 102.239C109.587 102.453 110.198 102.881 110.268 103.169C110.338 103.349 110.124 103.672 110.268 103.851C110.373 103.995 110.661 103.96 110.875 104.209C111.054 104.423 111.378 105.035 111.557 105.249C111.557 105.249 111.486 104.603 112.059 105.608C112.526 106.429 112.094 106.036 112.382 106.359C115.034 109.33 117.722 110.549 121.629 110.549C128.794 110.549 134.169 106.144 134.169 100.088C134.169 96.5407 132.482 93.4952 129.905 92.206C128.974 91.7424 127.793 91.4893 127.147 91.5984C126.897 91.6335 126.967 91.6337 126.788 91.6337C126.107 91.6336 126.286 91.3447 125.141 91.3447C121.34 91.3448 117.329 94.1064 117.329 97.401C117.329 98.0436 117.469 98.6165 117.757 99.0838C117.827 99.1538 117.827 99.1889 117.827 99.2977C117.827 99.4068 117.792 99.512 117.648 99.6561C117.504 99.7999 117.503 99.7653 117.503 99.87C117.503 99.9751 117.543 100.015 117.792 100.085C118.617 100.334 118.797 101.876 120.3 101.876C120.658 101.876 120.943 101.767 121.087 101.588C121.231 101.409 121.231 101.299 121.087 101.085C120.873 100.766 120.907 100.941 120.907 100.836C120.908 100.731 121.016 100.692 121.017 100.622C121.017 100.513 120.872 100.408 120.872 100.264C120.872 100.12 121.121 100.084 121.121 99.9053C121.121 99.8352 121.052 99.7651 121.052 99.6561C121.052 99.5472 121.121 99.4772 121.121 99.3683C121.121 99.2242 121.013 99.1187 121.013 98.9746C121.013 98.7605 121.441 98.8303 121.441 98.6162C121.441 98.5461 121.406 98.476 121.406 98.367C121.406 98.1528 121.62 98.0783 121.655 97.8641C121.69 97.6502 121.726 97.5415 121.87 97.4716C122.014 97.3625 121.905 97.1832 122.049 97.1132C122.095 97.0898 122.215 97.0779 122.407 97.0779C122.586 97.0779 122.552 97.148 122.552 96.7548C122.552 96.6822 122.647 96.6456 122.839 96.6456C122.983 96.6456 122.984 96.5371 123.127 96.467C123.197 96.432 123.377 96.3964 123.486 96.3964C123.844 96.3964 123.879 96.3258 124.347 96.3258C124.561 96.3257 124.631 96.1826 124.775 96.1825C124.919 96.1825 125.059 96.3611 125.168 96.3611C125.277 96.3611 125.382 96.252 125.491 96.2519C125.6 96.2519 125.601 96.3961 125.779 96.3964C127.391 96.3964 129.183 97.9036 129.183 99.4069C129.183 99.9444 128.934 100.517 128.934 101.09C128.934 101.409 129.04 101.768 128.969 102.056C128.895 102.305 128.752 102.414 128.682 102.593C128.608 102.772 128.537 103.2 128.214 103.488C128.144 103.523 127.462 104.314 127.104 104.708C126.387 105.459 125.277 105.852 123.915 105.852C123.556 105.852 123.412 106.032 123.089 106.032C117.465 106.032 113.523 102.414 113.523 97.3624C113.523 91.8087 118.719 87.4741 125.527 87.4741C133.265 87.4742 138.674 92.6691 138.675 100.302C138.675 104.995 136.704 108.614 133.3 111.41C133.23 111.48 133.121 111.555 132.872 111.804C131.976 112.661 131.477 112.59 130.472 113.307C128.997 114.38 125.472 115.173 121.966 115.268L121.266 115.273C120.156 115.273 120.156 115.204 119.867 115.204C119.654 115.204 119.545 115.239 119.475 115.239C119.261 115.239 119.116 115.059 118.901 115.204C118.828 115.277 118.792 115.277 118.614 115.168C118.4 115.059 118.147 114.88 118.041 114.845C117.936 114.81 117.897 114.88 117.827 114.88C117.722 114.88 117.648 114.771 117.578 114.736C117.504 114.701 117.504 114.665 117.434 114.665C117.04 114.665 117.219 114.705 117.075 114.596C116.822 114.417 116.394 114.416 116.071 114.307C115.927 114.272 116.678 114.591 115.354 113.984C111.592 112.228 110.411 111.585 109.586 110.76C109.048 110.222 108.799 109.54 108.476 109.217C108.332 109.073 107.833 108.715 107.724 108.501C107.689 108.431 107.69 108.396 107.69 108.252C107.69 108.039 107.583 107.826 107.581 107.823C107.402 107.609 107.043 107.538 106.615 106.857C106.401 106.534 107.043 107.966 105.575 104.528C104.823 102.771 104.25 99.5816 104.25 97.1826C104.251 94.3162 105.361 89.8028 106.256 88.9772C106.72 88.5449 106.541 87.8286 106.864 87.4002C110.626 82.2789 116.717 79.3381 123.525 79.3381Z" fill="var(--fill-0, white)"/>
<path fill-rule="evenodd" clip-rule="evenodd" d="M232.42 86.1961C239.262 86.1962 243.418 91.5798 243.418 97.5719C243.418 103.564 239.262 108.698 232.42 108.699C225.577 108.699 221.421 103.494 221.421 97.5719C221.421 91.65 225.577 86.1961 232.42 86.1961ZM232.42 90.9323C229.409 90.9323 227.294 93.4445 227.294 97.4274C227.294 101.411 229.409 103.958 232.42 103.958C235.43 103.958 237.545 101.375 237.545 97.4274C237.545 93.4798 235.43 90.9325 232.42 90.9323Z" fill="var(--fill-0, white)"/>
<path fill-rule="evenodd" clip-rule="evenodd" d="M190.499 86.2005C195.983 86.2005 199.278 88.4942 199.278 93.9869V104.181C199.278 105.756 199.492 106.798 199.492 107.301C199.492 107.73 199.203 108.019 198.775 108.019H194.725C194.296 108.019 194.187 107.875 194.008 107.481C193.864 107.122 193.719 107.012 193.505 107.012C193.361 107.013 193.252 107.048 193.003 107.227C192.065 107.933 190.335 108.482 188.499 108.547L188.135 108.557C183.476 108.557 180.322 105.647 180.322 101.809C180.322 97.4277 183.905 95.6684 188.349 95.0599C189.926 94.8102 191.254 94.5953 192.22 94.2714C193.225 93.9516 193.583 93.4837 193.583 92.7662C193.583 91.7285 192.618 90.7218 190.359 90.7217C188.567 90.7217 187.527 91.2252 187.098 92.3019C186.884 92.84 186.666 93.0198 186.058 93.0198H181.614C181.217 93.0197 180.933 92.7654 180.968 92.3714C181.397 88.5329 185.697 86.2005 190.499 86.2005ZM193.649 98.3559C193.649 97.9973 193.396 97.8177 192.968 97.927C191.928 98.1415 189.992 98.5712 189.061 98.8599C186.95 99.4724 186.124 100.37 186.124 101.661C186.125 103.142 187.354 103.992 188.984 104.092L189.315 104.099C191.535 104.099 193.649 103.057 193.649 100.474V98.3559Z" fill="var(--fill-0, white)"/>
<path fill-rule="evenodd" clip-rule="evenodd" d="M262.379 86.2005C267.862 86.2005 271.158 88.4941 271.158 93.9869V104.181C271.158 105.756 271.373 106.798 271.373 107.301C271.373 107.73 271.084 108.019 270.655 108.019H266.604C266.177 108.019 266.067 107.875 265.888 107.481C265.744 107.122 265.599 107.012 265.386 107.012C265.242 107.013 265.132 107.048 264.884 107.227C263.945 107.933 262.216 108.482 260.379 108.547L260.014 108.557C255.357 108.557 252.202 105.647 252.202 101.809C252.202 97.4277 255.785 95.6684 260.23 95.0599C261.807 94.8102 263.135 94.5952 264.1 94.2714C265.105 93.9516 265.464 93.4837 265.464 92.7662C265.464 91.7285 264.498 90.7219 262.24 90.7217C260.448 90.7217 259.407 91.2252 258.979 92.3019C258.765 92.84 258.546 93.0198 257.939 93.0198H253.495C253.098 93.0198 252.813 92.7655 252.848 92.3714C253.277 88.533 257.577 86.2006 262.379 86.2005ZM265.529 98.3559C265.529 97.9973 265.277 97.8177 264.849 97.927C263.809 98.1415 261.872 98.5712 260.942 98.8599C258.83 99.4724 258.005 100.37 258.005 101.661C258.006 103.142 259.234 103.992 260.864 104.092L261.194 104.099C263.414 104.099 265.529 103.057 265.529 100.474V98.3559Z" fill="var(--fill-0, white)"/>
<path d="M178.281 86.442C179.675 86.442 179.963 86.6568 179.963 87.1951V91.358C179.963 91.7556 179.709 92.0053 179.316 92.0053H176.918C174.23 92.0053 173.046 93.5151 173.046 96.242V107.298C173.046 107.727 172.757 108.016 172.329 108.016H168.138C167.71 108.016 167.422 107.727 167.422 107.298V87.5932C167.422 87.1642 167.709 86.8755 168.138 86.8753H171.935C172.399 86.8753 172.544 87.0195 172.723 87.4135C172.902 87.8073 173.046 87.9516 173.295 87.9516C173.429 87.9516 173.524 87.91 173.714 87.784L173.946 87.6274C174.986 86.9098 176.777 86.442 178.281 86.442Z" fill="var(--fill-0, white)"/>
<path d="M212.564 86.1927C217.474 86.1929 219.838 89.1338 219.838 95.1646V107.298C219.838 107.727 219.551 108.016 219.122 108.016H214.931C214.503 108.016 214.215 107.727 214.214 107.298V94.6662C214.214 92.4035 212.96 91.1462 210.775 91.1462C208.337 91.1464 206.834 92.8712 206.834 95.598V107.298C206.834 107.727 206.545 108.016 206.117 108.016H201.922C201.494 108.016 201.206 107.727 201.205 107.298V87.5932C201.205 87.1641 201.494 86.8754 201.922 86.8753H205.72C206.183 86.8754 206.327 87.0196 206.506 87.4135C206.685 87.7724 206.795 87.9163 207.044 87.9163C207.188 87.9162 207.294 87.8418 207.617 87.6274C208.622 86.9448 210.305 86.1927 212.564 86.1927Z" fill="var(--fill-0, white)"/>
<path d="M249.907 79.3028C250.336 79.3028 250.625 79.5916 250.625 80.0207V107.298C250.624 107.727 250.336 108.016 249.907 108.016H245.716C245.288 108.016 245 107.727 245 107.298V80.0207C245 79.5917 245.287 79.303 245.716 79.3028H249.907Z" fill="var(--fill-0, white)"/>
</g>
</g>
</svg>
