<svg viewBox="0 0 375.623 195.173" fill="none" xmlns="http://www.w3.org/2000/svg">
<g id="Frame 817">
<g id="Union">
<path fill-rule="evenodd" clip-rule="evenodd" d="M205.353 88.6769C214.339 87.9793 219.359 95.5077 218.729 103.844L200.271 103.844C200.348 106.356 201.13 108.865 203.676 109.838C206.609 110.957 210.864 110.183 212.106 106.996H218.299C216.532 112.328 213.36 115.02 207.705 115.517C199.871 116.221 193.907 111.561 193.289 103.597C192.679 95.7343 197.282 89.2956 205.353 88.6769ZM211.696 99.3864C210.979 95.8011 209.613 93.8679 205.718 93.9516C202.321 94.2402 200.678 96.0749 200.261 99.3864H211.696Z" fill="var(--fill-0, white)"/>
<path d="M174.45 99.8541C174.449 101.943 174.328 104.181 174.638 106.237C175.037 108.889 176.328 110.001 178.942 110.068C185.241 110.23 184.389 103.389 184.389 99.1045V89.3415H191.421V114.933H184.731L184.73 111.166C182.871 114.183 180.199 115.527 176.705 115.573C174.28 115.605 171.601 115.107 169.822 113.328C167.698 111.203 167.448 107.829 167.41 104.989C167.394 103.409 167.406 101.832 167.407 100.257L167.408 89.3415H174.452L174.45 99.8541Z" fill="var(--fill-0, white)"/>
<path d="M227.83 114.934L220.792 114.933V79.5997H227.83V114.934Z" fill="var(--fill-0, white)"/>
<path d="M141.55 93.1573H155.844V79.5997H163.62V114.933L155.844 114.933V99.6916H141.55V114.933H133.773V79.5997H141.55V93.1573Z" fill="var(--fill-0, white)"/>
<path fill-rule="evenodd" clip-rule="evenodd" d="M235.977 81.4044C237.252 81.3881 239.904 81.0127 239.16 83.2276C239.101 83.4044 238.722 83.5927 238.557 83.6882C239.215 84.2064 239.456 84.9505 239.828 85.728C239.55 85.7109 239.194 85.7167 238.91 85.7133C238.181 85.7715 238.334 83.7311 237.078 84.0821C237.031 84.2418 237.057 85.4538 237.059 85.7015H235.976L235.977 81.4044ZM238.075 83.189C238.321 82.1985 237.926 82.1888 237.059 82.2076V83.3148C237.412 83.3164 237.751 83.3438 238.075 83.189Z" fill="var(--fill-0, white)"/>
<path fill-rule="evenodd" clip-rule="evenodd" d="M237.198 79.6266C239.424 79.3151 241.483 80.8602 241.807 83.0845C242.13 85.3087 240.597 87.3767 238.374 87.7125C236.135 88.0509 234.047 86.5026 233.721 84.261C233.394 82.0195 234.954 79.9404 237.198 79.6266ZM241.1 83.2602C240.869 81.4229 239.196 80.118 237.358 80.3413C235.509 80.5659 234.194 82.251 234.427 84.0993C234.659 85.9476 236.35 87.2549 238.197 87.0147C240.033 86.7759 241.331 85.0975 241.1 83.2602Z" fill="var(--fill-0, white)"/>
</g>
</g>
</svg>
