<svg viewBox="0 0 375.623 194.606" fill="none" xmlns="http://www.w3.org/2000/svg">
<g id="Frame 823">
<path id="Vector" d="M154.18 85.985H156.073V89.954H153.63C151.736 89.954 150.27 90.4501 149.353 91.3804C148.437 92.3106 147.948 93.861 147.948 95.9695V108.931H144.099V86.109H147.948V89.7679C147.948 89.7679 148.07 90.078 148.254 90.078C148.376 90.078 148.437 90.078 148.498 90.016C148.498 90.016 148.62 89.83 148.681 89.6439C149.414 87.2253 151.247 86.047 154.241 86.047L154.18 85.985ZM179.778 90.8842C180.816 92.7447 181.305 94.9152 181.305 97.5199C181.305 100.125 180.816 102.295 179.778 104.156C178.739 106.016 177.456 107.38 175.807 108.249C174.157 109.117 172.447 109.613 170.614 109.613C166.948 109.613 164.382 108.125 162.916 105.148C162.794 104.9 162.672 104.776 162.488 104.776C162.305 104.776 162.244 104.838 162.244 105.024V117.241H158.395V86.109H162.244V90.016C162.244 90.016 162.305 90.2641 162.488 90.2641C162.672 90.2641 162.794 90.14 162.916 89.892C164.382 86.9152 166.948 85.4269 170.614 85.4269C172.447 85.4269 174.218 85.861 175.807 86.7912C177.395 87.7214 178.739 89.0858 179.778 90.8842ZM177.456 97.4579C177.456 94.7912 176.723 92.6827 175.318 91.1323C173.913 89.6439 172.019 88.8997 169.697 88.8997C167.376 88.8997 165.543 89.6439 164.077 91.1323C162.672 92.6207 162.122 94.7292 162.122 97.4579C162.122 100.187 162.672 102.233 164.077 103.783C165.482 105.272 167.376 106.016 169.697 106.016C172.019 106.016 173.852 105.272 175.318 103.783C176.723 102.295 177.456 100.187 177.456 97.4579ZM114.835 90.9462C115.874 92.8067 116.363 94.9773 116.363 97.5819C116.363 100.187 115.874 102.357 114.835 104.218C113.797 106.078 112.514 107.442 110.864 108.311C109.215 109.179 107.504 109.675 105.671 109.675C102.006 109.675 99.4398 108.187 97.9735 105.21C97.8513 104.962 97.7292 104.838 97.5459 104.838C97.3626 104.838 97.3015 104.9 97.3015 105.086V117.303H93.4526V86.109H97.3015V90.016C97.3015 90.016 97.3626 90.2641 97.5459 90.2641C97.7292 90.2641 97.8513 90.14 97.9735 89.892C99.4398 86.9152 102.006 85.4269 105.671 85.4269C107.504 85.4269 109.276 85.861 110.864 86.7912C112.453 87.7214 113.797 89.0858 114.835 90.8842V90.9462ZM112.514 97.5199C112.514 94.8532 111.781 92.7447 110.376 91.1943C108.97 89.7059 107.076 88.9617 104.755 88.9617C102.433 88.9617 100.601 89.7059 99.1343 91.1943C97.7292 92.6827 97.1793 94.7912 97.1793 97.5199C97.1793 100.249 97.7292 102.295 99.1343 103.845C100.539 105.334 102.433 106.078 104.755 106.078C107.076 106.078 108.909 105.334 110.376 103.845C111.781 102.357 112.514 100.249 112.514 97.5199ZM137.196 101.675H141.289C140.739 103.783 139.639 105.644 137.99 107.256C136.34 108.807 133.897 109.613 130.781 109.613C128.459 109.613 126.382 109.117 124.61 108.125C122.839 107.132 121.433 105.768 120.456 103.907C119.478 102.109 118.99 99.9385 118.99 97.5199C118.99 95.1013 119.478 92.9307 120.395 91.1323C121.311 89.3338 122.655 87.9075 124.366 86.9152C126.077 85.923 128.032 85.4269 130.353 85.4269C132.675 85.4269 134.507 85.923 136.096 86.8532C137.684 87.8455 138.845 89.0858 139.639 90.6982C140.434 92.3106 140.8 94.047 140.8 95.9695V98.5742H123.022C123.144 100.869 123.938 102.667 125.282 104.032C126.626 105.396 128.459 106.078 130.72 106.078C132.552 106.078 134.019 105.706 134.996 104.9C135.974 104.094 136.707 103.039 137.134 101.675H137.196ZM123.022 95.2873H136.462C136.462 93.3028 135.974 91.7524 134.935 90.6362C133.958 89.5199 132.369 88.9617 130.231 88.9617C128.215 88.9617 126.565 89.5199 125.343 90.6362C124.122 91.7524 123.266 93.3028 123.022 95.3493V95.2873ZM184.421 108.869H188.27V77.3028H184.421V108.869ZM238.672 83.5664H243.193V78.6672H238.672V83.6284V83.5664ZM255.289 105.52C254.617 105.582 254.19 105.644 254.006 105.644C253.823 105.644 253.64 105.644 253.518 105.458C253.396 105.334 253.334 105.21 253.334 104.962C253.334 104.838 253.334 104.404 253.457 103.659C253.518 102.915 253.579 101.861 253.579 100.373V89.4579H259.077L257.978 86.109H253.579V79.9695H249.73V86.109H245.514V89.4579H249.73V101.489C249.73 104.032 250.341 105.892 251.563 107.132C252.785 108.373 254.617 108.993 257.061 108.993H260.055V105.458H258.527C257.061 105.458 255.961 105.458 255.289 105.582V105.52ZM278.627 86.047L272.212 105.21C272.212 105.21 271.968 105.768 271.54 105.768C271.113 105.768 270.99 105.458 270.868 105.21L264.453 86.047H260.543L267.936 108.869H270.563C270.563 108.869 270.868 108.869 270.929 108.869C270.99 108.869 271.113 108.993 271.113 109.117C271.235 109.303 271.235 109.551 271.113 109.923L269.891 113.272C269.707 113.706 269.402 113.954 268.913 113.954C268.73 113.954 268.363 113.954 267.691 113.83C267.08 113.768 266.225 113.706 265.248 113.706H262.132V117.241H266.225C268.608 117.241 270.074 116.807 271.296 116.001C272.518 115.194 273.495 113.706 274.167 111.597L282.171 86.9773V86.109H278.505L278.627 86.047ZM225.598 94.6052L219.55 86.109H215.334V86.9773L222.604 96.8377L213.746 108.001V108.869H218.083L225.109 99.6904L231.646 108.869H235.801V108.001L228.103 97.4579L236.411 86.9773V86.047H232.074L225.537 94.5431L225.598 94.6052ZM239.1 108.869H242.949V86.109H239.1V108.931V108.869ZM213.685 101.675C213.135 103.783 212.035 105.644 210.386 107.256C208.736 108.807 206.292 109.613 203.177 109.613C200.855 109.613 198.778 109.117 197.006 108.125C195.234 107.132 193.829 105.768 192.852 103.907C191.874 102.109 191.386 99.9385 191.386 97.5199C191.386 95.1013 191.874 92.9307 192.791 91.1323C193.707 89.3338 195.051 87.9075 196.762 86.9152C198.472 85.923 200.427 85.4269 202.749 85.4269C205.071 85.4269 206.903 85.923 208.492 86.8532C210.08 87.8455 211.241 89.0858 212.035 90.6982C212.829 92.3106 213.196 94.047 213.196 95.9695V98.5742H195.418C195.54 100.869 196.334 102.667 197.678 104.032C199.022 105.396 200.855 106.078 203.116 106.078C204.948 106.078 206.415 105.706 207.392 104.9C208.37 104.094 209.103 103.039 209.53 101.675H213.624H213.685ZM195.479 95.2873H208.919C208.919 93.3028 208.431 91.7524 207.392 90.6362C206.415 89.5199 204.826 88.9617 202.688 88.9617C200.672 88.9617 199.022 89.5199 197.8 90.6362C196.517 91.7524 195.723 93.3028 195.479 95.3493V95.2873Z" fill="var(--fill-0, white)"/>
</g>
</svg>
