<svg viewBox="0 0 375.623 194.606" fill="none" xmlns="http://www.w3.org/2000/svg">
<g id="Frame 825">
<g id="Union">
<path fill-rule="evenodd" clip-rule="evenodd" d="M272.531 87.6694C275.542 87.6694 277.902 88.339 279.609 89.6744V108.267C279.609 110.059 279.262 111.639 278.569 113.006C277.876 114.372 276.898 115.427 275.63 116.181C274.368 116.929 272.904 117.303 271.253 117.303C269.225 117.303 267.523 116.876 266.136 116.019L265.88 115.843C264.621 114.993 263.667 113.79 263.017 112.237L264.217 111.675C264.776 112.694 265.567 113.468 266.597 114.003C267.621 114.538 268.816 114.808 270.177 114.808C271.988 114.808 273.447 114.299 274.554 113.286C275.661 112.268 276.215 110.901 276.215 109.192V107.383C276.215 106.661 276.267 106.017 276.375 105.455C276.479 104.894 276.68 104.115 276.975 103.128L276.737 103.008C276.282 104.613 275.459 105.898 274.259 106.864C273.059 107.83 271.672 108.308 270.1 108.308C268.527 108.308 267.259 107.913 266.059 107.123C264.859 106.333 263.912 105.242 263.219 103.85C262.526 102.457 262.179 100.893 262.179 99.1524C262.179 96.9025 262.613 94.9121 263.477 93.1662C264.341 91.4256 265.563 90.075 267.135 89.1137C268.708 88.1525 270.508 87.6695 272.531 87.6694ZM271.931 89.4204C270.038 89.4204 268.553 90.1581 267.472 91.6285C266.391 93.0989 265.852 95.1462 265.852 97.7701C265.852 100.181 266.333 102.083 267.29 103.471C268.247 104.863 269.556 105.559 271.207 105.559C272.407 105.559 273.426 105.305 274.264 104.795L274.425 104.708C275.188 104.202 275.783 103.486 276.21 102.556V91.7117C275.915 91.0414 275.361 90.4957 274.549 90.0644C273.737 89.6384 272.862 89.4204 271.931 89.4204Z" fill="var(--fill-0, white)"/>
<path fill-rule="evenodd" clip-rule="evenodd" d="M294.265 87.6694C297.276 87.6694 299.636 88.339 301.343 89.6744V108.267C301.343 110.059 300.996 111.639 300.303 113.006C299.61 114.372 298.632 115.427 297.364 116.181C296.097 116.929 294.638 117.303 292.987 117.303C290.964 117.303 289.257 116.876 287.87 116.019L287.614 115.843C286.355 114.993 285.401 113.79 284.751 112.237L285.951 111.675C286.51 112.694 287.301 113.468 288.331 114.003C289.355 114.538 290.55 114.808 291.911 114.808C293.722 114.808 295.181 114.299 296.288 113.286C297.395 112.268 297.949 110.901 297.949 109.192V107.383C297.949 106.661 298.001 106.017 298.109 105.455C298.213 104.894 298.414 104.115 298.709 103.128L298.471 103.008C298.016 104.613 297.193 105.898 295.993 106.864C294.793 107.83 293.406 108.308 291.834 108.308C290.261 108.308 288.993 107.913 287.793 107.123C286.593 106.333 285.646 105.242 284.953 103.85C284.26 102.457 283.913 100.893 283.913 99.1524C283.913 96.9025 284.347 94.9121 285.211 93.1662C286.075 91.4256 287.297 90.075 288.869 89.1137C290.442 88.1525 292.242 87.6694 294.265 87.6694ZM293.67 89.4204C291.777 89.4204 290.292 90.158 289.211 91.6285C288.13 93.0989 287.592 95.1462 287.592 97.7701C287.592 100.181 288.073 102.083 289.03 103.471C289.992 104.863 291.296 105.559 292.946 105.559C294.146 105.559 295.165 105.304 296.003 104.795L296.164 104.708C296.927 104.202 297.522 103.486 297.949 102.556V91.7117C297.654 91.0414 297.1 90.4957 296.288 90.0644C295.476 89.6384 294.601 89.4204 293.67 89.4204Z" fill="var(--fill-0, white)"/>
<path d="M178.13 107.737C178.13 110.683 177.375 113.011 175.869 114.726C174.364 116.441 172.278 117.298 169.614 117.298C167.586 117.298 165.884 116.866 164.497 116.014C163.111 115.157 162.071 113.899 161.378 112.242L162.578 111.681C163.696 113.77 165.869 114.814 169.097 114.814C170.83 114.814 172.201 114.31 173.215 113.307C174.224 112.304 174.736 110.933 174.736 109.192V106.864C174.736 106.194 174.793 105.591 174.917 105.056C175.036 104.521 175.217 103.907 175.455 103.211L175.211 103.134C174.756 104.661 173.933 105.903 172.733 106.869C171.533 107.83 170.188 108.313 168.693 108.313C166.8 108.313 165.314 107.737 164.233 106.589C163.152 105.44 162.614 103.871 162.614 101.891V92.0133C162.614 91.4785 162.542 91.0836 162.397 90.829C162.247 90.5744 161.957 90.4075 161.517 90.3244C161.077 90.2465 160.379 90.2054 159.417 90.2054V89.1604L165.211 88.1579H166.013V100.966C166.013 102.494 166.365 103.642 167.074 104.421C167.778 105.196 168.828 105.585 170.214 105.585C171.202 105.585 172.118 105.305 172.972 104.744C173.826 104.183 174.41 103.471 174.731 102.614V92.0133C174.731 91.4783 174.658 91.0836 174.508 90.829C174.363 90.5744 174.068 90.4075 173.629 90.3244C173.189 90.2464 172.491 90.2054 171.529 90.2054V89.1604L177.323 88.1579L177.328 88.1426H178.13V107.737Z" fill="var(--fill-0, white)"/>
<path fill-rule="evenodd" clip-rule="evenodd" d="M200.722 79.0334C201.627 79.0334 202.647 79.1054 203.779 79.2509C204.912 79.3964 205.823 79.6044 206.516 79.8745V86.7391H205.637C204.571 82.4315 202.744 80.2747 200.158 80.2747C198.958 80.2747 198.031 80.6234 197.38 81.3197C196.728 82.0159 196.402 82.8731 196.402 83.8913C196.402 84.5616 196.542 85.2213 196.821 85.876C197.101 86.5307 197.452 87.1029 197.882 87.5862L210.516 102.161C211.716 103.527 212.647 104.432 213.314 104.873C213.982 105.315 214.768 105.534 215.674 105.534C216.181 105.534 216.672 105.398 217.154 105.133C217.635 104.868 218.018 104.52 218.312 104.089L219.102 104.605C218.703 105.623 218.042 106.527 217.127 107.316C216.206 108.106 215.068 108.5 213.708 108.5C212 108.5 210.51 107.763 209.227 106.292L206.072 102.639C205.404 104.406 204.406 105.824 203.071 106.895C201.741 107.965 200.179 108.5 198.394 108.5C196.93 108.5 195.564 108.215 194.296 107.638C193.029 107.061 192.01 106.199 191.239 105.045C190.468 103.897 190.08 102.489 190.08 100.831C190.08 96.7626 192.305 93.7749 196.759 91.8783L195.921 90.9165C194.053 88.7759 193.122 86.8742 193.122 85.2167C193.122 83.398 193.784 81.9116 195.104 80.7581C196.423 79.6046 198.296 79.0335 200.722 79.0334ZM197.396 92.6369C196.17 93.1461 195.217 93.8575 194.534 94.7668C193.857 95.6762 193.515 96.9237 193.515 98.5033C193.515 99.8126 193.795 101.008 194.353 102.078C194.912 103.149 195.693 103.985 196.691 104.588C197.69 105.191 198.793 105.492 199.993 105.492C202.31 105.492 204.136 104.312 205.471 101.959L197.396 92.6369Z" fill="var(--fill-0, white)"/>
<path d="M104.779 100.945C104.779 104.026 106.176 105.565 108.975 105.565C109.932 105.565 110.842 105.289 111.696 104.743C112.549 104.193 113.15 103.481 113.496 102.597V91.9972C113.496 91.4361 113.403 91.0258 113.217 90.7712C113.03 90.5167 112.731 90.3554 112.317 90.2878C111.903 90.2203 111.23 90.1893 110.299 90.1893V89.1452L116.098 88.1418H116.895V104.765C116.895 105.461 117.108 105.933 117.537 106.188C117.961 106.442 118.763 106.65 119.938 106.811V107.815H113.765V106.37C113.765 105.648 113.791 105.071 113.848 104.645C113.9 104.219 114.018 103.72 114.21 103.159L113.972 103.117C113.517 104.723 112.679 105.991 111.453 106.911C110.227 107.836 108.897 108.298 107.454 108.298C105.643 108.298 104.173 107.742 103.056 106.63C101.938 105.518 101.374 103.933 101.374 101.87V91.9921C101.374 91.4312 101.282 91.0208 101.096 90.7662C100.909 90.5116 100.609 90.3503 100.195 90.2827C99.7812 90.2152 99.1086 90.1842 98.1773 90.1842V89.1392L103.977 88.1367H104.779V100.945Z" fill="var(--fill-0, white)"/>
<path fill-rule="evenodd" clip-rule="evenodd" d="M155.531 104.77C155.531 105.466 155.743 105.944 156.172 106.194C156.597 106.448 157.398 106.656 158.572 106.817V107.82L158.562 107.815H152.406V106.287C152.406 105.7 152.432 105.175 152.489 104.723C152.54 104.266 152.675 103.736 152.887 103.117L152.686 102.998C152.101 104.738 151.237 106.059 150.109 106.952C148.976 107.851 147.594 108.298 145.97 108.298C144.345 108.298 143.052 107.887 141.852 107.071C140.652 106.256 139.725 105.138 139.074 103.72C138.422 102.301 138.096 100.696 138.096 98.9034C138.096 96.7107 138.52 94.7617 139.374 93.0626C140.227 91.3635 141.417 90.0383 142.954 89.0874C144.485 88.1365 146.213 87.6643 148.133 87.6643C149.783 87.6644 151.118 88.0122 152.132 88.7085V81.5584C152.132 80.8622 152.007 80.3686 151.754 80.0725C151.5 79.7764 151.055 79.6307 150.414 79.6307C149.933 79.6307 149.12 79.7397 147.977 79.9527V79.0691L154.532 77.3028H155.531V104.77ZM148.049 89.2225C146.13 89.2225 144.604 89.9714 143.471 91.473C142.338 92.9746 141.769 94.9801 141.769 97.4948C141.769 100.01 142.281 101.797 143.311 103.179C144.335 104.556 145.758 105.248 147.569 105.248C148.551 105.248 149.446 105.014 150.248 104.546C151.045 104.079 151.677 103.429 152.127 102.597V90.9114C151.325 89.7891 149.969 89.2225 148.049 89.2225Z" fill="var(--fill-0, white)"/>
<path d="M134.283 87.6694C134.815 87.6694 135.229 87.7262 135.524 87.83L135.509 91.8366H134.867C134.438 91.5976 133.879 91.473 133.191 91.473C131.939 91.473 130.894 91.847 130.051 92.6004C129.213 93.3486 128.794 94.5282 128.794 96.1338V103.964C128.794 104.712 128.913 105.278 129.156 105.653C129.394 106.027 129.797 106.297 130.356 106.458C130.915 106.619 131.768 106.739 132.917 106.822V107.825H122.084V106.822C123.041 106.718 123.744 106.583 124.184 106.422C124.624 106.261 124.934 106.001 125.12 105.637C125.306 105.274 125.4 104.723 125.4 103.969V92.4857C125.4 91.8155 125.26 91.3424 124.981 91.0618C124.701 90.7813 124.215 90.6413 123.522 90.6413L121.804 90.7194V89.7161L127.444 88.152H128.365V91.083C128.365 92.8497 128.338 94.3205 128.281 95.5H128.524L128.846 93.4109C129.14 91.4831 129.813 90.0434 130.863 89.0925C131.919 88.1417 133.057 87.6694 134.283 87.6694Z" fill="var(--fill-0, white)"/>
<path d="M247.869 87.7009H246.669C246.136 85.3158 245.189 83.611 243.829 82.5821C242.468 81.5534 240.429 81.0342 237.713 81.0342H232.954V92.7618H235.473C236.725 92.7618 237.698 92.6106 238.391 92.2988C239.085 91.9922 239.591 91.4935 239.912 90.8129C240.233 90.1322 240.456 89.1867 240.59 87.9812H241.63V99.1422H240.59C240.456 97.8589 240.223 96.8714 239.892 96.1907C239.556 95.5102 239.043 95.0113 238.35 94.7048C237.657 94.3983 236.699 94.2426 235.473 94.2426H232.954V102.437C232.954 103.668 233.094 104.578 233.373 105.17C233.652 105.762 234.139 106.168 234.832 106.397C235.525 106.625 236.591 106.765 238.03 106.817V107.82H225.276V106.817C226.316 106.765 227.108 106.604 227.656 106.334C228.204 106.064 228.587 105.632 228.815 105.03C229.043 104.427 229.156 103.564 229.156 102.442V85.0867C229.156 83.9384 229.043 83.06 228.815 82.4572C228.587 81.8547 228.199 81.4289 227.656 81.1744C227.108 80.9198 226.316 80.7633 225.276 80.7114V79.7088H247.067L247.869 87.7009Z" fill="var(--fill-0, white)"/>
<path fill-rule="evenodd" clip-rule="evenodd" d="M86.516 79.7088C88.0887 79.7089 89.5528 79.9691 90.9134 80.4939C92.2739 81.0135 93.3757 81.8239 94.2293 82.9203C95.0829 84.0166 95.5071 85.3985 95.5071 87.056C95.5071 88.7136 95.0522 90.2571 94.1469 91.4314C93.2415 92.6109 92.0719 93.4736 90.6492 94.0192C89.2214 94.5699 87.7365 94.8399 86.1897 94.8399H81.9529V102.432C81.9529 103.663 82.0923 104.568 82.3717 105.144C82.6511 105.721 83.1375 106.121 83.8304 106.349C84.5237 106.578 85.59 106.729 87.0283 106.812V107.815H74.2803V106.812C75.346 106.734 76.1483 106.557 76.6812 106.292C77.2139 106.027 77.5912 105.596 77.8188 105.009C78.0464 104.421 78.1603 103.564 78.1603 102.437V85.0867C78.1603 83.9384 78.0464 83.0656 77.8188 82.4785C77.5912 81.8913 77.2032 81.4706 76.66 81.216C76.1116 80.9614 75.3202 80.7945 74.2803 80.7114V79.7088H86.516ZM81.9529 93.4738H85.5899L85.595 93.4789C87.5143 93.4788 88.9785 92.9379 89.9925 91.8519C91.0063 90.7659 91.5132 89.1551 91.5132 87.0144C91.5132 85.0349 91.0683 83.5334 90.1734 82.515C89.2784 81.4966 87.8764 80.9875 85.9518 80.9875H81.9529V93.4738Z" fill="var(--fill-0, white)"/>
<path d="M256.815 103.964C256.815 104.739 256.908 105.31 257.094 105.669C257.28 106.032 257.601 106.293 258.052 106.454C258.502 106.615 259.195 106.734 260.131 106.817V107.815H250.094V106.812C251.026 106.734 251.719 106.61 252.174 106.449C252.629 106.288 252.945 106.022 253.137 105.648C253.323 105.274 253.415 104.713 253.415 103.959V92.4755C253.415 91.7793 253.276 91.2906 252.997 91.01C252.717 90.7296 252.231 90.5894 251.538 90.5894C251.139 90.5894 250.617 90.6313 249.981 90.7092V89.7059L255.816 88.1418H256.815V103.964Z" fill="var(--fill-0, white)"/>
<path d="M219.114 104.613L219.102 104.605L219.103 104.603L219.114 104.613Z" fill="var(--fill-0, white)"/>
<path d="M254.849 79.8286C255.594 79.8286 256.22 80.0832 256.727 80.5924C257.234 81.1016 257.487 81.7304 257.487 82.4785C257.487 83.2266 257.234 83.8554 256.727 84.3646C256.22 84.8738 255.594 85.1283 254.849 85.1283C254.104 85.1283 253.478 84.8736 252.971 84.3646C252.464 83.8554 252.211 83.2266 252.211 82.4785C252.211 81.7303 252.464 81.1016 252.971 80.5924C253.478 80.0832 254.104 79.8287 254.849 79.8286Z" fill="var(--fill-0, white)"/>
</g>
</g>
</svg>
