<svg viewBox="0 0 375.623 194.606" fill="none" xmlns="http://www.w3.org/2000/svg">
<g id="Frame 822">
<g id="Union">
<path fill-rule="evenodd" clip-rule="evenodd" d="M233.773 94.6309C236.63 94.631 238.602 95.7468 239.765 97.1342L239.976 95.0482H246.431V114.895H239.976V114.886L239.765 112.799C238.602 114.206 236.63 115.303 233.773 115.303C228.352 115.303 224.372 110.919 224.372 104.987C224.372 99.055 228.352 94.6309 233.773 94.6309ZM235.358 100.412C232.774 100.412 230.977 102.293 230.977 104.982C230.977 107.671 232.779 109.552 235.358 109.552C237.937 109.551 239.739 107.671 239.739 104.982C239.739 102.293 237.937 100.432 235.358 100.412Z" fill="var(--fill-0, white)"/>
<path d="M160.322 106.098C160.322 108.064 161.656 109.366 163.411 109.366C165.403 109.366 166.715 108.084 166.715 106.098V95.0383H173.388V106.595C173.388 111.638 169.429 115.298 163.416 115.298C157.403 115.298 153.655 111.638 153.655 106.717V95.0383H160.322V106.098Z" fill="var(--fill-0, white)"/>
<path d="M189.834 94.621C193.664 94.621 197.35 97.2451 197.35 101.981V114.881H190.684V103.846C190.684 101.634 188.882 100.578 187.276 100.578C185.67 100.579 183.889 101.634 183.889 103.846V114.886H177.222V95.0383H183.338L183.549 97.1243C184.99 95.3448 187.446 94.621 189.834 94.621Z" fill="var(--fill-0, white)"/>
<path d="M213.845 94.621C217.675 94.621 221.362 97.2451 221.362 101.981V114.881H214.695V103.846C214.695 101.634 212.893 100.578 211.287 100.578C209.681 100.579 207.9 101.634 207.9 103.846V114.886H201.233V95.0383H207.349L207.56 97.1243C209.001 95.3448 211.457 94.621 213.845 94.621Z" fill="var(--fill-0, white)"/>
<path d="M138.263 86.8091C144.466 86.8091 149.207 90.9259 149.208 96.8579C149.208 100.497 147.113 103.758 144.067 105.518L151.432 114.861H143.071L129.192 96.8529H137.238L140.157 100.553C141.377 99.7938 142.078 98.4263 142.078 96.8529C142.078 94.249 140.343 92.535 137.779 92.5349H133.831L129.316 86.8091H138.263Z" fill="var(--fill-0, white)"/>
<path d="M149.166 79.3028C151.648 79.3029 153.66 81.2679 153.66 83.6916C153.66 86.1154 151.648 88.0803 149.166 88.0804C146.684 88.0804 144.672 86.1154 144.672 83.6916C144.672 81.2679 146.684 79.3028 149.166 79.3028Z" fill="var(--fill-0, white)"/>
</g>
</g>
</svg>
