<svg viewBox="0 0 375.623 194.606" fill="none" xmlns="http://www.w3.org/2000/svg">
<g id="Frame 819">
<path id="Vector" d="M245.654 111.894C244.169 111.079 243.715 109.843 243.715 107.065V87.8667C243.715 84.1532 241.227 81.8892 237.622 81.7096C234.861 81.5592 233.467 82.3153 232.8 82.8249C232.133 83.3387 232.104 83.7021 232.104 83.911C232.104 84.5166 232.712 84.3955 233.74 84.9678C235.226 85.7823 235.679 87.0187 235.679 89.7965V94.9887C235.679 95.0806 235.62 95.231 235.465 95.0179C235.041 94.4749 232.674 92.1817 228.125 92.1817C221.575 92.1817 215.569 97.2527 215.569 104.254C215.569 110.653 219.573 115.603 226.396 115.603C229.519 115.603 232.036 114.667 234.37 112.011C235.066 111.225 235.524 110.26 235.675 110.26C235.797 110.26 235.797 110.411 235.855 110.745C236.25 113.13 237.735 115.152 241.768 115.152C244.529 115.152 245.923 114.546 246.59 114.036C247.257 113.523 247.287 113.159 247.287 112.95C247.287 112.345 246.678 112.466 245.65 111.894H245.654ZM229.745 110.473C225.863 110.473 223.375 107.123 223.375 102.988C223.375 98.8526 225.863 95.3438 229.502 95.3438C233.321 95.3438 235.478 98.581 235.478 102.716C235.478 106.367 233.963 110.473 229.745 110.473ZM213.324 114.337C213.324 114.909 213.11 115.152 212.292 115.152H199.283C198.464 115.152 198.25 114.909 198.25 114.337C198.25 113.731 198.401 113.523 199.283 113.188C201.771 112.224 201.771 111.046 201.771 108.782V89.7965C201.771 87.0187 201.318 85.7823 199.832 84.9678C198.8 84.3955 198.196 84.5166 198.196 83.911C198.196 83.6979 198.225 83.3387 198.892 82.8249C199.56 82.3111 200.953 81.5592 203.714 81.7096C207.323 81.8892 209.808 84.1532 209.808 87.8667V108.786C209.808 111.05 209.808 112.228 212.296 113.193C213.177 113.527 213.328 113.736 213.328 114.341L213.324 114.337ZM196.417 114.337C196.417 114.909 196.202 115.152 195.384 115.152H182.375C181.557 115.152 181.343 114.909 181.343 114.337C181.343 113.731 181.494 113.523 182.375 113.188C184.864 112.224 184.864 111.046 184.864 108.782V100.269C184.864 97.4908 184.41 96.2544 182.921 95.4398C181.888 94.8676 181.284 94.9887 181.284 94.383C181.284 94.17 181.313 93.8108 181.981 93.297C182.648 92.7832 184.041 92.0313 186.802 92.1817C190.411 92.3613 192.896 94.6253 192.896 98.3388V108.782C192.896 111.046 192.896 112.224 195.38 113.188C196.261 113.523 196.412 113.731 196.412 114.337H196.417ZM182.526 84.1658C180.13 84.1658 178.946 85.5233 175.522 98.0798L171.582 112.286C171.095 114.099 170.671 115.244 165.79 115.244C161.544 115.244 160.998 114.249 160.666 112.616L156.541 93.9904C156.361 93.1466 156.147 92.662 155.903 92.662C155.66 92.662 155.48 92.9043 155.236 93.9904L150.444 112.282C150.02 114.095 149.596 115.239 144.653 115.239C140.406 115.239 139.86 114.396 139.466 112.762L134.22 91.4256C132.856 85.9327 131.488 84.7255 129.973 83.9736C128.941 83.4598 128.337 83.4306 128.337 82.8249C128.337 82.6119 128.366 82.2526 129.033 81.7389C129.7 81.2251 131.4 80.5901 133.704 80.5901C136.008 80.5901 138.131 81.1624 139.68 82.8249C141.165 84.3955 141.711 87.0522 142.621 90.8241L147.078 109.358C147.229 110.022 147.292 110.081 147.38 110.081C147.468 110.081 147.561 110.022 147.712 109.358L152.655 90.5818C153.839 85.5108 154.565 83.276 158.354 83.276C162.144 83.276 163.054 85.9035 163.994 90.5818L168.178 109.329C168.3 109.964 168.359 110.085 168.51 110.085C168.602 110.085 168.661 110.026 168.845 109.329L173.881 91.1374C174.972 87.1817 175.975 84.2869 177.612 82.3237C179.521 80.0304 182.039 79.0028 185.405 79.0028C189.408 79.0028 192.925 80.845 192.925 83.7105C192.925 85.6111 191.318 87.2401 189.287 87.2401C186.194 87.2401 184.889 84.1616 182.526 84.1616V84.1658Z" fill="var(--fill-0, white)"/>
</g>
</svg>
