<svg viewBox="0 0 375.623 194.606" fill="none" xmlns="http://www.w3.org/2000/svg">
<g id="Frame 824">
<path id="Union" d="M135.394 72.9525C137.804 72.0304 140.481 72.0921 142.846 73.1234V73.1244C142.898 73.1466 142.951 73.1668 143.003 73.1908C143.196 73.2779 143.394 73.3778 143.594 73.4857C143.687 73.5345 143.772 73.5868 143.861 73.6391C145.972 74.8719 147.551 76.8442 148.292 79.1742C149.032 81.5042 148.881 84.0261 147.869 86.2514C146.034 90.2753 143.227 93.7794 139.7 96.4476C136.209 99.0888 132.121 100.827 127.798 101.513L118.417 122.303H109.713C112.886 115.365 116.061 108.428 119.235 101.492C119.233 101.491 119.231 101.491 119.229 101.491C116.889 101.107 114.61 100.413 112.454 99.4271C104.843 95.9473 98.8798 88.3601 97.1382 80.0004H105.061C105.806 82.7222 107.14 85.2475 108.968 87.3969C110.797 89.5463 113.076 91.2683 115.643 92.4398C117.828 93.4423 120.185 94.0179 122.586 94.1371H122.599C125.052 88.7761 127.506 83.4155 129.959 78.0541C131.032 75.7071 132.984 73.8747 135.394 72.9525ZM168.902 99.1693L172.836 89.2504H178.015L167.441 114.818H162.293L166.371 104.788L159.571 89.2504H164.861L168.902 99.1693ZM240.389 106.413H235.578V104.283C234.366 106.045 231.978 106.854 230.061 106.854C225.654 106.854 221.65 103.33 221.65 97.8129C221.65 92.2964 225.654 88.8139 230.061 88.8139C232.053 88.8139 234.359 89.5797 235.578 91.348V79.9223H240.389V106.413ZM188.3 88.809C193.186 88.809 197.521 92.4084 197.521 97.85C197.521 103.249 193.186 106.85 188.3 106.85C183.415 106.85 179.081 103.248 179.081 97.85C179.081 92.4132 183.415 88.8092 188.3 88.809ZM253.318 88.809C258.24 88.8092 262.244 92.2982 262.244 97.5434C262.241 98.0337 262.207 98.6212 262.133 99.392H249.24C249.755 101.413 251.371 102.588 253.648 102.588C254.5 102.584 255.342 102.402 256.12 102.054C256.897 101.706 257.594 101.201 258.166 100.569L260.958 103.396C259.342 105.564 256.361 106.85 253.354 106.85C248.064 106.85 244.208 103.138 244.208 97.85C244.208 92.3027 248.433 88.809 253.318 88.809ZM275.763 88.8148C276.681 88.8133 277.71 88.9606 278.485 89.3637L277.381 93.9603C276.629 93.5432 275.781 93.3279 274.92 93.3353C272.46 93.3354 270.769 95.6495 270.769 100.537V106.413H265.958V89.2504H270.731V92.9281C271.686 90.0642 273.632 88.8149 275.763 88.8148ZM211.257 88.8197C215.74 88.8136 218.09 91.8554 218.053 97.0043V106.412H213.242V97.2611C213.242 94.5798 211.626 93.3678 209.972 93.3676C208.245 93.3676 206.115 94.2871 206.115 97.4086V106.412H201.303V89.2504H206.115V92.1615C206.85 89.8477 209.567 88.8198 211.257 88.8197ZM188.3 93.2943C185.913 93.2946 183.967 95.1685 183.967 97.85C183.967 100.495 185.913 102.367 188.3 102.368C190.688 102.368 192.636 100.495 192.636 97.85C192.636 95.1683 190.688 93.2943 188.3 93.2943ZM230.98 93.2943C230.391 93.2986 229.809 93.4184 229.267 93.6478C228.725 93.8773 228.234 94.2116 227.821 94.6312C227.408 95.0509 227.082 95.5483 226.862 96.0941C226.642 96.64 226.531 97.2243 226.537 97.8129C226.537 100.311 228.556 102.367 230.98 102.368C233.335 102.368 235.424 100.421 235.424 97.8129C235.424 96.6276 234.958 95.49 234.127 94.6449C233.295 93.7997 232.165 93.3148 230.98 93.2943ZM253.427 92.9633C251.445 92.9634 249.75 93.9563 249.24 96.2699H257.395C257.242 94.2488 255.594 92.9633 253.427 92.9633ZM139.631 80.1176C139.121 79.9374 138.561 79.9555 138.062 80.1674C137.564 80.3793 137.162 80.7702 136.937 81.2631L132.008 92.183C135.93 90.2537 139.065 87.027 140.879 83.0482C140.933 82.931 140.976 82.8095 141.008 82.685L141.02 82.6342L141.029 82.6156C141.136 82.1158 141.064 81.5934 140.823 81.141C140.568 80.6631 140.142 80.2978 139.631 80.1176Z" fill="var(--fill-0, white)"/>
</g>
</svg>
