<svg viewBox="0 0 375.623 194.606" fill="none" xmlns="http://www.w3.org/2000/svg">
<g id="Frame 820">
<path id="Vector" d="M163.674 116.383C163.829 116.403 163.985 116.367 164.114 116.283C164.244 116.198 164.337 116.071 164.378 115.924L167.975 104.736C168.132 104.276 167.741 104.123 167.428 104.353C163.674 107.111 159.139 110.023 154.604 110.023C150.773 110.023 149.052 108.031 149.052 104.276C149.052 101.747 149.756 98.8353 150.382 96.6898C150.694 95.6171 151.242 94.3143 151.555 93.3182C151.711 92.8586 151.163 92.6286 150.851 93.0116L130.677 115.617C130.364 116 130.521 116.383 130.99 116.383H163.674ZM197.532 89.257C197.532 97.9158 191.433 112.475 184.787 112.475C182.441 112.475 180.251 110.713 180.251 105.272C180.251 96.6133 186.351 82.0537 192.997 82.0537C195.343 82.0537 197.532 83.8162 197.532 89.257ZM140.764 78.069C140.61 78.0492 140.453 78.0849 140.324 78.1695C140.195 78.2541 140.101 78.3819 140.06 78.5291L136.385 89.6399C136.347 89.7213 136.338 89.8133 136.36 89.9003C136.382 89.9875 136.434 90.0645 136.508 90.1183C136.581 90.1722 136.671 90.1997 136.763 90.1963C136.854 90.193 136.942 90.1588 137.011 90.0997C141.311 86.9579 146.316 84.3528 150.773 84.3528C154.604 84.3528 156.637 86.3451 156.637 89.9466C156.637 92.322 156.09 94.6975 155.23 97.6858C154.917 98.8353 154.526 99.8316 154.213 100.904C154.177 100.994 154.175 101.094 154.208 101.185C154.241 101.276 154.307 101.352 154.393 101.399C154.479 101.446 154.58 101.461 154.677 101.44C154.773 101.42 154.859 101.365 154.917 101.287L172.588 78.9888C172.901 78.6056 172.823 78.069 172.198 78.069H140.764ZM242.65 98.2225C243.119 98.2225 243.197 98.0692 243.353 97.7627C244.213 95.9235 244.917 92.3988 244.917 89.9467C244.917 82.5903 240.147 77.3028 231.937 77.3028C220.912 77.3028 210.512 87.1113 210.512 100.751C210.512 110.713 217.393 117.303 227.245 117.303C237.411 117.303 242.337 110.483 245.074 104.046C245.23 103.663 244.839 103.357 244.448 103.739C241.868 106.192 237.567 108.95 231.859 108.95C225.291 108.95 221.225 105.042 221.225 98.8353C221.225 90.5595 227.167 82.0537 232.563 82.0537C234.674 82.0537 235.769 83.433 235.769 85.2723C235.769 89.6399 231.468 94.3143 225.838 97.4561C225.447 97.686 225.447 98.2225 226.151 98.2225H242.65ZM208.245 95.1572C208.245 85.1189 201.598 77.3028 191.824 77.3028C178.922 77.3028 169.539 88.4906 169.539 99.3718C169.539 109.41 176.185 117.226 185.959 117.226C199.096 117.226 208.245 106.039 208.245 95.1572Z" fill="var(--fill-0, white)"/>
</g>
</svg>
