<svg viewBox="0 0 121.315 27.6764" fill="none" xmlns="http://www.w3.org/2000/svg">
<g id="Frame 933">
<g id="Union">
<path d="M92.6818 10.3648C92.7704 10.3648 92.849 10.4217 92.8766 10.5059L95.8367 19.5491C95.8664 19.6298 95.9432 19.6834 96.0291 19.6834H97.1092C97.1999 19.6834 97.2797 19.6238 97.3056 19.5369L99.9911 10.5113C100.017 10.4244 100.097 10.3648 100.188 10.3648H102.205C102.343 10.3648 102.442 10.4986 102.401 10.6305L97.9336 25.0123C97.4034 26.6022 95.9154 27.6745 94.2395 27.6745H91.2156C91.1025 27.6745 91.0107 27.5826 91.0107 27.4694V25.9525C91.0107 25.845 91.0937 25.7555 91.201 25.7471C91.5485 25.72 92.4239 25.6491 94.2395 25.4883C94.9131 25.4286 95.5161 25.0556 95.73 24.4141L96.4741 21.9981C96.5147 21.8663 96.4161 21.7329 96.2782 21.7329H96.0974C95.0376 21.7329 94.0904 21.0718 93.7248 20.0771L90.4502 10.6369C90.404 10.5038 90.5028 10.3648 90.6437 10.3648H92.6818Z" fill="var(--fill-0, #FFFFF7)"/>
<path d="M108.04 10.0744C110.256 10.0744 111.733 11.2366 112.233 13.1583C112.26 13.2629 112.197 13.3686 112.094 13.3988L110.516 13.8581C110.402 13.8911 110.285 13.8212 110.253 13.7074C109.991 12.7828 109.37 11.976 108.04 11.976C106.452 11.976 105.911 12.7297 105.911 13.4212C105.911 14.3823 106.911 14.7004 108.403 14.9769C110.827 15.4333 112.483 16.2839 112.483 18.5242C112.483 20.5641 110.628 22.0231 108.04 22.0231C105.706 22.0231 104.121 20.9007 103.474 18.7827C103.441 18.6775 103.502 18.5673 103.607 18.5341L105.211 18.0272C105.321 17.9926 105.437 18.0551 105.473 18.1643C105.785 19.1186 106.39 20.1146 108.04 20.1146C109.403 20.1146 110.375 19.5407 110.375 18.538C110.375 17.9434 110.101 17.3004 108.02 16.9339C105.754 16.519 103.802 15.786 103.802 13.5042C103.802 11.4436 105.589 10.0744 108.04 10.0744Z" fill="var(--fill-0, #FFFFF7)"/>
<path fill-rule="evenodd" clip-rule="evenodd" d="M57.4597 10.0744C60.0202 10.0744 62.04 11.3536 62.04 14.1956V19.8526C62.04 19.9441 62.1006 20.0245 62.1886 20.0497L63.5653 20.4429C63.6533 20.4681 63.7139 20.5485 63.7139 20.64V21.7936C63.7139 21.9068 63.6222 21.9986 63.509 21.9986H61.2829C60.9383 21.9986 60.6241 21.7994 60.4837 21.4846C60.4053 21.3086 60.3194 21.1118 60.247 20.9355C60.1843 20.7828 59.9686 20.7465 59.8526 20.8639C59.2412 21.4826 58.2294 22.0162 56.6176 22.0162C54.2625 22.0161 52.7426 20.5295 52.7426 18.5588C52.7426 16.7264 53.7833 15.3089 57.1174 14.8318L59.6391 14.4698C59.74 14.4553 59.8153 14.3689 59.8153 14.267C59.8152 14.1881 59.8143 14.1091 59.8106 14.0304C59.7475 12.6612 58.972 11.9069 57.4118 11.9069C55.8822 11.9069 55.1671 12.6319 54.9379 13.7447C54.9135 13.8633 54.7973 13.9424 54.6797 13.9135L53.1248 13.5319C53.0156 13.5051 52.948 13.3949 52.9773 13.2863C53.5368 11.2123 54.9768 10.0744 57.4597 10.0744ZM59.5787 16.2372L57.3023 16.5881C55.7619 16.8162 54.8992 17.3003 54.8992 18.4413C54.8992 19.4715 55.7619 20.1561 57.1653 20.1561C58.5688 20.1561 59.8149 19.354 59.8149 17.6599V16.4398C59.8149 16.3142 59.7029 16.2181 59.5787 16.2372Z" fill="var(--fill-0, #FFFFF7)"/>
<path fill-rule="evenodd" clip-rule="evenodd" d="M78.0696 10.0744C80.6301 10.0744 82.6499 11.3536 82.6499 14.1956V19.8526C82.6499 19.9441 82.7105 20.0245 82.7985 20.0497L84.1752 20.4429C84.2632 20.4681 84.3238 20.5485 84.3238 20.64V21.7936C84.3238 21.9068 84.232 21.9986 84.1189 21.9986H81.8928C81.5482 21.9986 81.234 21.7994 81.0936 21.4846C81.0152 21.3086 80.9293 21.1118 80.8569 20.9355C80.7942 20.7828 80.5785 20.7465 80.4625 20.8639C79.8511 21.4826 78.8393 22.0162 77.2275 22.0162C74.8724 22.0161 73.3526 20.5295 73.3526 18.5588C73.3526 16.7264 74.3932 15.3089 77.7273 14.8318L80.249 14.4698C80.3499 14.4553 80.4252 14.3689 80.4252 14.267C80.4251 14.1881 80.4242 14.1091 80.4205 14.0304C80.3574 12.6612 79.5819 11.9069 78.0217 11.9069C76.4921 11.9069 75.777 12.6319 75.5478 13.7447C75.5234 13.8633 75.4072 13.9424 75.2896 13.9135L73.7347 13.5319C73.6255 13.5051 73.5579 13.3949 73.5872 13.2863C74.1467 11.2123 75.5867 10.0745 78.0696 10.0744ZM80.1886 16.2372L77.9122 16.5881C76.3718 16.8162 75.5091 17.3003 75.5091 18.4413C75.5091 19.4715 76.3718 20.1561 77.7752 20.1561C79.1787 20.1561 80.4248 19.354 80.4248 17.6599V16.4398C80.4248 16.3142 80.3128 16.2181 80.1886 16.2372Z" fill="var(--fill-0, #FFFFF7)"/>
<path d="M43.5481 5.35156C46.8739 5.35157 49.4247 7.08939 50.506 10.1232C50.5439 10.2294 50.4861 10.3454 50.3793 10.3814L48.5933 10.9826C48.4846 11.0192 48.3672 10.9592 48.3295 10.8508C47.5919 8.72915 45.9862 7.45369 43.5686 7.45369C40.3098 7.45369 37.9068 10.1089 37.9067 13.6838C37.9067 17.2587 40.3098 19.9071 43.6371 19.9071C46.1087 19.9071 47.6107 18.5863 48.2785 16.8278C48.3185 16.7226 48.4336 16.665 48.5404 16.7004L50.2944 17.2814C50.405 17.3181 50.4629 17.4398 50.4193 17.5478C49.3007 20.314 47.0202 22.016 43.6097 22.016C38.9268 22.0091 35.6406 18.6486 35.6406 13.6838C35.6406 8.85043 38.9748 5.35156 43.5481 5.35156Z" fill="var(--fill-0, #FFFFF7)"/>
<path d="M68.1337 7.41226C68.2469 7.41228 68.3386 7.50403 68.3386 7.61719V10.1599C68.3386 10.273 68.4304 10.3649 68.5436 10.3649H71.1665C71.2797 10.3649 71.3716 10.4567 71.3716 10.5698V12.172C71.3716 12.2852 71.2797 12.3771 71.1665 12.3771H68.5436C68.4304 12.3771 68.3386 12.4688 68.3386 12.582V19.6871C68.3387 19.8247 68.441 19.9409 68.5776 19.9582L71.1923 20.2893C71.2947 20.3023 71.3716 20.3894 71.3716 20.4927V21.8043C71.3716 21.9175 71.2797 22.0092 71.1665 22.0092H68.8462C67.337 22.0092 66.1136 20.7858 66.1136 19.2766V18.8769H66.1204V12.582C66.1204 12.4688 66.0287 12.3771 65.9155 12.3771H64.3057C64.1925 12.3771 64.1008 12.2852 64.1008 12.172V10.5698C64.1008 10.4567 64.1925 10.3649 64.3057 10.3649H65.9155C66.0287 10.3649 66.1204 10.273 66.1204 10.1599V7.61719C66.1204 7.50401 66.2122 7.41226 66.3254 7.41226H68.1337Z" fill="var(--fill-0, #FFFFF7)"/>
<path d="M88.1652 7.41226C88.2784 7.41227 88.3702 7.50402 88.3702 7.61719V21.8043C88.3702 21.9174 88.2784 22.0092 88.1652 22.0092H86.3569C86.2437 22.0092 86.1519 21.9174 86.1519 21.8043V7.61719C86.152 7.50402 86.2437 7.41227 86.3569 7.41226H88.1652Z" fill="var(--fill-0, #FFFFF7)"/>
<path d="M118.077 7.41226C118.19 7.41226 118.282 7.50401 118.282 7.61719V10.1599C118.282 10.273 118.374 10.3649 118.487 10.3649H121.11C121.223 10.3649 121.315 10.4567 121.315 10.5698V12.172C121.315 12.2852 121.223 12.3771 121.11 12.3771H118.487C118.374 12.3771 118.282 12.4688 118.282 12.582V19.6871C118.282 19.8247 118.384 19.9408 118.521 19.9582L121.136 20.2893C121.238 20.3023 121.315 20.3895 121.315 20.4927V21.8043C121.315 21.9174 121.223 22.0092 121.11 22.0092H118.79C117.28 22.0092 116.057 20.7858 116.057 19.2766V18.8769H116.064V12.582C116.064 12.4688 115.972 12.3771 115.859 12.3771H114.249C114.136 12.3771 114.044 12.2852 114.044 12.172V10.5698C114.044 10.4567 114.136 10.3649 114.249 10.3649H115.859C115.972 10.3649 116.064 10.273 116.064 10.1599V7.61719C116.064 7.50403 116.156 7.41228 116.269 7.41226H118.077Z" fill="var(--fill-0, #FFFFF7)"/>
</g>
<path id="Subtract" d="M17.3086 0C18.3957 -1.2031e-08 19.4383 0.431826 20.207 1.20052L25.6787 6.67216C26.4473 7.44086 26.8792 8.48347 26.8792 9.57056V11.4055C26.8792 11.7073 26.6345 11.952 26.3327 11.952H23.1514C22.8777 11.952 22.6463 11.7496 22.6097 11.4784L21.8932 6.15759C21.8111 5.54771 21.3313 5.06796 20.7215 4.98582L13.6219 4.02974C13.5008 4.01344 13.3782 4.01344 13.2571 4.02974L6.15753 4.98582C5.54764 5.06796 5.06789 5.54771 4.98576 6.15759L4.02968 13.2572C4.01338 13.3782 4.01338 13.5009 4.02968 13.6219L4.98576 20.7215C5.06789 21.3314 5.54764 21.8112 6.15753 21.8933L13.2571 22.8494C13.3782 22.8657 13.5008 22.8657 13.6219 22.8494L20.7215 21.8933C21.3313 21.8112 21.8111 21.3314 21.8932 20.7215L22.6097 15.4008C22.6463 15.1296 22.8777 14.9272 23.1514 14.9272H26.3327C26.6345 14.9272 26.8792 15.1719 26.8792 15.4737V17.3086C26.8792 18.3957 26.4473 19.4383 25.6787 20.207L20.207 25.6786C19.4383 26.4473 18.3957 26.8792 17.3086 26.8792H9.57056C8.48346 26.8792 7.44086 26.4473 6.67216 25.6786L1.20052 20.207C0.431846 19.4383 5.6806e-06 18.3957 0 17.3086V9.57056C-1.2031e-08 8.48347 0.431836 7.44086 1.20052 6.67216L6.67216 1.20052C7.44086 0.431826 8.48346 3.06143e-07 9.57056 0H17.3086Z" fill="var(--fill-0, #FFFFF7)"/>
<g id="Rectangle 33" filter="url(#filter0_f_0_26)">
<rect x="10.4043" y="10.4062" width="6.0721" height="6.0721" rx="1.25135" fill="url(#paint0_linear_0_26)"/>
<rect x="10.4043" y="10.4062" width="6.0721" height="6.0721" rx="1.25135" fill="var(--fill-1, black)" fill-opacity="0.5"/>
<rect x="10.4043" y="10.4062" width="6.0721" height="6.0721" rx="1.25135" fill="url(#paint1_linear_0_26)"/>
</g>
<g id="Rectangle 34">
<rect x="10.4043" y="10.4062" width="6.0721" height="6.0721" rx="1.25135" fill="url(#paint2_linear_0_26)"/>
<rect x="10.4043" y="10.4062" width="6.0721" height="6.0721" rx="1.25135" fill="var(--fill-1, black)" fill-opacity="0.5"/>
<rect x="10.4043" y="10.4062" width="6.0721" height="6.0721" rx="1.25135" fill="url(#paint3_linear_0_26)"/>
</g>
</g>
<defs>
<filter id="filter0_f_0_26" x="0.393488" y="0.395441" width="26.0937" height="26.0937" filterUnits="userSpaceOnUse" color-interpolation-filters="sRGB">
<feFlood flood-opacity="0" result="BackgroundImageFix"/>
<feBlend mode="normal" in="SourceGraphic" in2="BackgroundImageFix" result="shape"/>
<feGaussianBlur stdDeviation="5.0054" result="effect1_foregroundBlur_0_26"/>
</filter>
<linearGradient id="paint0_linear_0_26" x1="10.4043" y1="13.4423" x2="16.4764" y2="13.4423" gradientUnits="userSpaceOnUse">
<stop stop-color="#CD69FF"/>
<stop offset="0.5" stop-color="#7FC3FF"/>
<stop offset="1" stop-color="#00FFF2"/>
</linearGradient>
<linearGradient id="paint1_linear_0_26" x1="13.4403" y1="6.65556" x2="13.4403" y2="16.4784" gradientUnits="userSpaceOnUse">
<stop/>
<stop offset="1" stop-opacity="0"/>
</linearGradient>
<linearGradient id="paint2_linear_0_26" x1="10.4043" y1="13.4423" x2="16.4764" y2="13.4423" gradientUnits="userSpaceOnUse">
<stop stop-color="#CD69FF"/>
<stop offset="0.5" stop-color="#7FC3FF"/>
<stop offset="1" stop-color="#00FFF2"/>
</linearGradient>
<linearGradient id="paint3_linear_0_26" x1="13.4403" y1="6.65556" x2="13.4403" y2="16.4784" gradientUnits="userSpaceOnUse">
<stop/>
<stop offset="1" stop-opacity="0"/>
</linearGradient>
</defs>
</svg>
